SplineFontDB: 3.2
FontName: NikolaZubonjaV
FullName: NikolaZubonjaV
FamilyName: NikolaZubonjaV
Weight: Regular
Copyright: Copyright (c) 2024, Nikola
UComments: "2024-3-21: Created with FontForge (http://fontforge.org)"
Version: 001.000
ItalicAngle: 0
UnderlinePosition: -100
UnderlineWidth: 50
Ascent: 800
Descent: 200
InvalidEm: 0
LayerCount: 2
Layer: 0 0 "Stra+AX4A-nji" 1
Layer: 1 0 "Prednji" 0
XUID: [1021 86 -168234061 2304]
OS2Version: 0
OS2_WeightWidthSlopeOnly: 0
OS2_UseTypoMetrics: 1
CreationTime: 1711039828
ModificationTime: 1711093879
OS2TypoAscent: 0
OS2TypoAOffset: 1
OS2TypoDescent: 0
OS2TypoDOffset: 1
OS2TypoLinegap: 0
OS2WinAscent: 0
OS2WinAOffset: 1
OS2WinDescent: 0
OS2WinDOffset: 1
HheadAscent: 0
HheadAOffset: 1
HheadDescent: 0
HheadDOffset: 1
OS2Vendor: 'PfEd'
MarkAttachClasses: 1
DEI: 91125
Encoding: iso8859-2
UnicodeInterp: none
NameList: AGL For New Fonts
DisplaySize: -48
AntiAlias: 1
FitToEm: 0
WinInfo: 0 38 14
BeginPrivate: 0
EndPrivate
BeginChars: 256 22

StartChar: N
Encoding: 78 78 0
Width: 1000
Flags: H
LayerCount: 2
Fore
SplineSet
0 0 m 1
 0 578 l 25
 118 580 l 25
 496 114 l 1
 482 590 l 25
 628 592 l 1
 638 0 l 29
 474 0 l 1
 98 400 l 1
 112 0 l 25
 0 0 l 1
EndSplineSet
Validated: 1
EndChar

StartChar: i
Encoding: 105 105 1
Width: 490
Flags: HW
LayerCount: 2
Fore
SplineSet
268 614 m 17
 213.572624763 618.432855248 188.487699347 645.912809322 182 688 c 1
 180.765962057 736.890149155 207.83984375 745.801757812 248 748 c 5
 294.138671875 775.2109375 325.128625655 732.719481543 340 700 c 1
 330.665121425 666.666702108 310.665121463 638.666702077 280 616 c 9
 268 614 l 17
218 0 m 1
 206 558 l 1
 206 558 354 560 356 562 c 0
 358 564 374 6 374 0 c 0
 374 -6 218 0 218 0 c 1
EndSplineSet
Validated: 524321
EndChar

StartChar: k
Encoding: 107 107 2
Width: 1000
Flags: H
LayerCount: 2
Fore
SplineSet
192 0 m 9
 184 578 l 25
 300 572 l 1
 312 274 l 25
 312 274 626 414 624 416 c 0
 622 418 702 370 702 370 c 5
 438 210 l 1
 438 210 640 14 642 14 c 0
 644 14 468 -6 468 0 c 0
 468 6 312 136 312 136 c 25
 312 136 308 4 308 0 c 0
 308 -4 192 0 192 0 c 9
EndSplineSet
Validated: 33
EndChar

StartChar: o
Encoding: 111 111 3
Width: 1000
Flags: H
LayerCount: 2
Fore
SplineSet
500 148 m 29
 418 178 l 25
 418 178 396 209 396 210 c 8
 396 211 366 255 365 256 c 8
 364 257 346 319 346 322 c 8
 346 325 345 361 344 369 c 8
 343 377 353 427 353 428 c 8
 353 429 373 466 373 466 c 25
 408 489 l 25
 453 501 l 25
 511 506 l 25
 511 506 566 498 566 497 c 8
 566 496 637 462 637 462 c 25
 657 428 l 25
 684 378 l 25
 679 339 l 25
 674 279 l 25
 652 234 l 25
 652 234 633 211 631 210 c 8
 629 209 603 192 603 192 c 25
 603 192 571 175 567 170 c 8
 563 165 524 148 524 148 c 25
 500 148 l 29
430 574 m 25
 262 470 l 25
 244 296 l 25
 308 176 l 25
 400 66 l 25
 400 66 506 60 510 60 c 8
 514 60 656 92 658 92 c 8
 660 92 718 158 722 164 c 8
 726 170 768 308 768 308 c 25
 768 308 764 436 762 442 c 8
 760 448 710 510 710 512 c 8
 710 514 604 568 604 568 c 25
 604 568 536 576 532 576 c 8
 528 576 464 580 464 580 c 25
 430 574 l 25
EndSplineSet
Validated: 41
EndChar

StartChar: l
Encoding: 108 108 4
Width: 601
Flags: HW
LayerCount: 2
Fore
SplineSet
154 0 m 13
 133 805 l 25
 337 805 l 25
 337 805 346 -1 346 0 c 0
 346 1 154 0 154 0 c 13
EndSplineSet
Validated: 33
EndChar

StartChar: a
Encoding: 97 97 5
Width: 1000
Flags: H
LayerCount: 2
Fore
SplineSet
438 162 m 1024
324 556 m 25
 324 556 421 632 432 634 c 8
 443 636 463 643 507 649 c 8
 551 655 571 656 598 658 c 8
 625 660 630 669 652 658 c 8
 674 647 705 633 715 614 c 8
 725 595 736 579 742 560 c 8
 748 541 754 536 760 499 c 8
 766 462 778 446 780 391 c 8
 782 336 781 333 783 300 c 8
 785 267 786 228 786 201 c 8
 786 174 781 139 781 132 c 8
 781 125 781 47 781 46 c 8
 781 45 735 45 735 45 c 25
 735 121 l 25
 735 121 719 131 709 123 c 8
 699 115 699 116 688 103 c 8
 677 90 675 84 673 82 c 8
 671 80 667 75 664 72 c 8
 661 69 647 59 647 59 c 25
 647 59 632 56 628 56 c 8
 624 56 585 53 583 53 c 8
 581 53 576 54 576 59 c 8
 576 64 576 69 576 86 c 8
 576 103 576 104 576 114 c 8
 576 124 576 132 576 132 c 25
 576 132 594 129 603 129 c 8
 612 129 598 122 620 134 c 8
 642 146 638 140 654 157 c 8
 670 174 672 169 682 190 c 8
 692 211 697 215 695 232 c 8
 693 249 711 240 683 262 c 8
 655 284 656 291 629 296 c 8
 602 301 603 302 578 304 c 8
 553 306 548 305 517 306 c 8
 486 307 489 307 458 308 c 8
 427 309 418 315 399 302 c 8
 380 289 368 286 362 272 c 0
 356 258 339 219 358 208 c 0
 377 197 350.860351562 168.491210938 375 170 c 0
 400.0859375 171.568359375 384.52573821 147.605486603 436 147 c 0
 457.065980796 146.752202971 434.652279509 152.981266737 491 159 c 0
 511.474790441 161.186997117 521 148 528 145 c 0
 535 142 566 135 566 135 c 5
 566 135 570 53 569 53 c 0
 568 53 463 58 446 58 c 8
 429 58 436 55 402 58 c 8
 368 61 361 59 342 66 c 8
 323 73 328 67 310 84 c 8
 292 101 290 99 283 118 c 8
 276 137 268 142 272 172 c 8
 276 202 269 193 286 239 c 8
 303 285 305 298 315 323 c 8
 325 348 320 348 335 366 c 8
 350 384 340 389 367 396 c 8
 394 403 394 403 413 405 c 8
 432 407 436 409 458 407 c 8
 480 405 516 402 526 402 c 8
 536 402 525 404 549 402 c 8
 573 400 572 402 600 396 c 8
 628 390 614 399 638 386 c 8
 662 373 673 369 678 366 c 8
 683 363 692 361 692 361 c 25
 692 361 707 367 701 379 c 8
 695 391 692 391 690 413 c 8
 688 435 694 436 686 459 c 8
 678 482 684 476 665 497 c 8
 646 518 646 521 632 537 c 8
 618 553 629 554 607 560 c 8
 585 566 601 571 559 566 c 8
 517 561 515 565 493 557 c 8
 471 549 466 541 442 532 c 8
 418 523 425 523 389 514 c 8
 353 505 341 498 324 498 c 8
 307 498 302 481 302 498 c 0
 302 515 315 533 324 556 c 25
13 736 m 1024
EndSplineSet
Validated: 524321
EndChar

StartChar: Z
Encoding: 90 90 6
Width: 1000
Flags: H
LayerCount: 2
Fore
SplineSet
67 565 m 1
 67 571 85 646 79 679 c 1
 940 664 l 1
 680.376617774 395.921992883 611.340724731 315.251617392 439 133 c 9
 886 130 l 25
 865 28 l 25
 124 19 l 25
 148 133 l 1
 664 568 l 5
 474.583007812 570.395507812 214.875976562 552.240234375 67 565 c 1
EndSplineSet
Validated: 524321
EndChar

StartChar: u
Encoding: 117 117 7
Width: 1000
Flags: H
LayerCount: 2
Fore
SplineSet
223 652 m 29
 229 709 l 1
 151 703 l 25
 151 703 136 634 136 625 c 16
 136 616 130 442 130 442 c 25
 130 442 136 268 136 265 c 16
 136 262 193 88 193 88 c 25
 193 88 346 28 352 28 c 16
 358 28 469 25 469 25 c 25
 586 73 l 25
 676 169 l 25
 700 292 l 25
 712 460 l 25
 697 673 l 25
 580 667 l 25
 586 589 l 25
 589 424 l 25
 589 424 556 208 553 205 c 16
 550 202 487 142 487 142 c 25
 487 142 340 142 337 142 c 16
 334 142 256 256 256 256 c 25
 214 415 l 1
 223 652 l 29
EndSplineSet
Validated: 9
EndChar

StartChar: b
Encoding: 98 98 8
Width: 715
Flags: HW
LayerCount: 2
Fore
SplineSet
168 615 m 29
 176 52 l 25
 176 52 214 50 240 47 c 8
 266 44 316 39 349 45 c 8
 382 51 402 49 424 57 c 8
 446 65 470 75 484 82 c 8
 498 89 515 92 523 104 c 8
 531 116 545 129 547 152 c 8
 549 175 561 178 550 210 c 8
 539 242 545 245 501 253 c 8
 457 261 459 266 427 262 c 8
 395 258 383 257 363 255 c 8
 343 253 304 257 304 257 c 25
 304 257 304 223 304 221 c 8
 304 219 296 217 310 217 c 8
 324 217 326 217 355 217 c 8
 384 217 393 223 414 217 c 8
 435 211 439 211 448 204 c 8
 457 197 464 206 465 186 c 8
 466 166 467 149 457 136 c 8
 447 123 447 106 417 100 c 8
 387 94 382 91 358 89 c 8
 334 87 326 88 307 87 c 8
 288 86 266 87 263 88 c 8
 260 89 254 113 254 113 c 25
 254 113 256 136 256 146 c 8
 256 156 256 160 256 168 c 8
 256 176 254 179 261 184 c 8
 268 189 290 208 290 208 c 25
 291 253 l 25
 241 256 l 25
 254 612 l 25
 168 615 l 29
1000 391 m 1024
EndSplineSet
Validated: 41
EndChar

StartChar: n
Encoding: 110 110 9
Width: 1000
Flags: H
LayerCount: 2
Fore
SplineSet
157 0 m 9
 157 625 l 1
 295 634 l 25
 298 511 l 25
 364 571 l 25
 439 565 l 25
 541 583 l 25
 580 517 l 25
 580 517 607 388 607 385 c 8
 607 382 613 232 616 205 c 8
 619 178 625 64 625 61 c 8
 625 58 607 -4 607 0 c 8
 607 4 532 16 532 16 c 25
 532 16 541 229 541 238 c 8
 541 247 523 391 523 394 c 8
 523 397 454 445 454 445 c 25
 373 433 l 25
 325 391 l 25
 325 391 325 271 325 268 c 8
 325 265 325 202 325 175 c 8
 325 148 325 124 325 109 c 8
 325 94 325 58 325 55 c 8
 325 52 325 -7 325 0 c 0
 325 7 157 0 157 0 c 9
EndSplineSet
Validated: 37
EndChar

StartChar: j
Encoding: 106 106 10
Width: 1000
Flags: H
LayerCount: 2
Fore
SplineSet
391 754 m 25
 340 715 l 25
 388 682 l 25
 430 676 l 25
 469 709 l 25
 469 709 469 745 466 748 c 8
 463 751 424 763 424 763 c 25
 391 754 l 25
316 631 m 25
 478 634 l 25
 493 487 l 25
 493 487 475 364 475 355 c 8
 475 346 490 238 490 238 c 25
 490 238 487 136 478 109 c 8
 469 82 409 -7 409 0 c 8
 409 7 271 28 271 28 c 25
 271 28 172 85 169 88 c 8
 166 91 166 193 166 193 c 25
 238 211 l 25
 283 133 l 25
 364 100 l 25
 406 205 l 25
 406 205 418 322 421 337 c 8
 424 352 427 499 427 499 c 25
 415 568 l 25
 340 571 l 25
 301 574 l 25
 316 631 l 25
EndSplineSet
Validated: 41
EndChar

StartChar: Zcaron
Encoding: 174 381 11
Width: 1000
Flags: H
LayerCount: 2
Fore
SplineSet
286 769 m 29
 427 692 l 25
 427 692 518 764 518 765 c 8
 518 766 475 776 475 776 c 25
 475 776 418 735 417 735 c 8
 416 735 317 779 317 779 c 25
 286 769 l 29
195 667 m 25
 699 653 l 25
 278 135 l 25
 664 124 l 25
 664 124 662 17 661 17 c 8
 660 17 134 31 134 31 c 25
 455 555 l 25
 186 539 l 25
 195 667 l 25
EndSplineSet
Validated: 9
EndChar

StartChar: Scaron
Encoding: 169 352 12
Width: 1000
Flags: H
LayerCount: 2
Fore
SplineSet
377 754 m 29
 531 678 l 25
 663 756 l 25
 586 769 l 25
 541 732 l 25
 405 774 l 25
 377 754 l 29
354 176 m 25
 285 92 l 25
 446 30 l 25
 446 30 565 25 572 25 c 8
 579 25 601 23 647 28 c 8
 693 33 711 33 720 48 c 8
 729 63 733 76 736 84 c 8
 739 92 740 97 746 120 c 8
 752 143 755 145 754 165 c 8
 753 185 753 191 748 203 c 8
 743 215 743 221 733 234 c 8
 723 247 729 251 709 261 c 8
 689 271 674 277 647 287 c 8
 620 297 616 299 594 305 c 8
 572 311 569 306 548 319 c 8
 527 332 520 326 518 341 c 8
 516 356 502 355 520 385 c 8
 538 415 517 407 551 425 c 8
 585 443 610 461 629 470 c 8
 648 479 668 482 691 483 c 8
 714 484 732 487 732 487 c 25
 732 487 746 501 749 502 c 8
 752 503 746 609 746 609 c 25
 746 609 651 616 645 616 c 8
 639 616 637 613 602 614 c 8
 567 615 530 622 523 624 c 8
 516 626 521 627 503 626 c 8
 485 625 480 627 457 619 c 8
 434 611 420 610 395 594 c 8
 370 578 346 566 333 542 c 8
 320 518 299 521 317 486 c 8
 335 451 327 425 357 390 c 8
 387 355 385 355 417 331 c 8
 449 307 455 299 485 279 c 8
 515 259 513 258 556 245 c 8
 599 232 599 239 631 227 c 8
 663 215 677 211 683 190 c 8
 689 169 698 147 666 141 c 8
 634 135 649 135 614 134 c 8
 579 133 566 128 529 140 c 8
 492 152 486 156 447 160 c 0
 408 164 390 170 354 176 c 25
EndSplineSet
Validated: 41
EndChar

StartChar: scaron
Encoding: 185 353 13
Width: 1000
Flags: H
LayerCount: 2
Fore
SplineSet
449 691 m 13
 576 597 l 25
 576 597 710 682 707 682 c 8
 704 682 661 702 661 702 c 25
 661 702 600 661 593 656 c 8
 586 651 482 698 479 706 c 0
 476 714 449 691 449 691 c 13
285 135 m 9
 285 135 264 125 307 102 c 8
 350 79 325 76 391 70 c 8
 457 64 453 61 514 59 c 8
 575 57 553 58 597 58 c 8
 641 58 632 42 680 63 c 8
 728 84 738 83 744 110 c 8
 750 137 766 138 750 158 c 8
 734 178 743 183 709 195 c 8
 675 207 682 201 658 211 c 8
 634 221 626 215 607 235 c 8
 588 255 578 254 573 279 c 8
 568 304 558 292 567 316 c 8
 576 340 560 333 597 363 c 8
 634 393 612 390 657 410 c 8
 702 430 709 428 728 441 c 8
 747 454 755 430 756 464 c 8
 757 498 796 483 750 511 c 8
 704 539 714 549 660 551 c 8
 606 553 624 565 574 552 c 8
 524 539 523 569 489 522 c 8
 455 475 451 484 447 449 c 8
 443 414 434 432 441 387 c 8
 448 342 427 343 464 308 c 8
 501 273 504 277 543 248 c 8
 582 219 587 212 598 193 c 8
 609 174 617 166 612 157 c 8
 607 148 596 138 551 138 c 8
 506 138 505 134 453 139 c 8
 401 144 378 143 363 148 c 8
 348 153 346 159 319 160 c 0
 292 161 285 135 285 135 c 9
EndSplineSet
Validated: 41
EndChar

StartChar: zcaron
Encoding: 190 382 14
Width: 1000
Flags: H
LayerCount: 2
Fore
SplineSet
331 621 m 13
 437 546 l 25
 517 629 l 25
 486 635 l 25
 438 596 l 25
 438 596 358 644 356 644 c 0
 354 644 331 621 331 621 c 13
295 502 m 9
 679 505 l 25
 679 505 330 118 329 118 c 8
 328 118 651 116 652 116 c 8
 653 116 657 29 656 29 c 8
 655 29 216 39 216 39 c 25
 509 416 l 25
 232 411 l 25
 235 490 l 25
 295 502 l 9
EndSplineSet
Validated: 41
EndChar

StartChar: Cacute
Encoding: 198 262 15
Width: 1000
Flags: H
LayerCount: 2
Fore
SplineSet
601 788 m 13
 453 725 l 25
 555 691 l 25
 741 783 l 25
 601 788 l 13
644 449 m 1032
644 449 m 1032
644 449 m 25
 711 574 l 25
 711 574 696 616 681 624 c 8
 666 632 671 634 625 647 c 8
 579 660 574 662 527 667 c 8
 480 672 467 678 426 677 c 8
 385 676 369 680 332 673 c 8
 295 666 303 702 242 639 c 8
 181 576 168 608 148 535 c 8
 128 462 125 505 121 405 c 8
 117 305 74 322 130 249 c 8
 186 176 182 174 256 129 c 8
 330 84 314 82 384 62 c 8
 454 42 468 36 515 35 c 8
 562 34 548 34 587 39 c 8
 626 44 622 224 622 224 c 25
 622 224 551 218 530 215 c 8
 509 212 531 209 477 210 c 8
 423 211 416 203 376 212 c 8
 336 221 341 211 298 241 c 8
 255 271 249 246 237 301 c 8
 225 356 216 350 221 402 c 8
 226 454 214 458 239 488 c 8
 264 518 249 527 298 534 c 8
 347 541 372 550 413 541 c 8
 454 532 468 530 498 513 c 8
 528 496 560 480 578 471 c 0
 596 462 618 458 644 449 c 25
EndSplineSet
Validated: 41
EndChar

StartChar: Ccaron
Encoding: 200 268 16
Width: 1000
Flags: H
LayerCount: 2
Fore
SplineSet
652 786 m 13
 556 724 l 25
 556 724 363 783 362 783 c 8
 361 783 453 787 453 787 c 25
 545 752 l 25
 619 792 l 25
 652 786 l 13
807 203 m 9
 807 203 793 170 778 152 c 8
 763 134 759 115 734 101 c 8
 709 87 716 81 673 70 c 8
 630 59 618 52 579 51 c 8
 540 50 557 45 506 49 c 8
 455 53 454 39 401 58 c 8
 348 77 335 53 299 106 c 8
 263 159 258 176 254 228 c 8
 250 280 244 298 248 365 c 8
 252 432 240 467 269 519 c 8
 298 571 287 589 350 622 c 8
 413 655 446 672 483 685 c 8
 520 698 501 702 544 705 c 8
 587 708 592 712 644 708 c 8
 696 704 720 703 729 701 c 8
 738 699 742 576 742 576 c 25
 742 576 679 589 672 590 c 8
 665 591 559 586 530 580 c 8
 501 574 495 579 467 568 c 8
 439 557 419 557 403 535 c 8
 387 513 386 526 372 476 c 8
 358 426 356 417 353 389 c 8
 350 361 345 352 352 316 c 8
 359 280 362 261 374 224 c 8
 386 187 368 175 401 163 c 8
 434 151 430 153 466 148 c 8
 502 143 522 122 562 150 c 8
 602 178 595 181 623 200 c 8
 651 219 657 225 680 236 c 8
 703 247 705 251 727 257 c 0
 749 263 807 203 807 203 c 9
EndSplineSet
Validated: 33
EndChar

StartChar: ccaron
Encoding: 232 269 17
Width: 1000
Flags: H
LayerCount: 2
Fore
SplineSet
710 683 m 29
 531 546 l 25
 332 652 l 25
 421 661 l 25
 421 661 530 589 531 590 c 8
 532 591 677 702 678 702 c 0
 679 702 698 690 710 683 c 29
732 147 m 25
 724 27 l 25
 724 27 672 24 646 23 c 8
 620 22 627 17 572 26 c 8
 517 35 513 31 458 42 c 8
 403 53 387 41 354 64 c 8
 321 87 315 86 292 127 c 8
 269 168 257 166 256 210 c 8
 255 254 223 250 261 309 c 8
 299 368 260 340 321 391 c 8
 382 442 359 439 424 464 c 8
 489 489 512 495 548 499 c 8
 584 503 587 508 639 504 c 8
 691 500 719 493 731 489 c 8
 743 485 736 384 736 384 c 25
 736 384 612 390 597 390 c 8
 582 390 576 402 511 386 c 8
 446 370 437 385 413 354 c 8
 389 323 373 323 367 276 c 8
 361 229 320 217 360 180 c 8
 400 143 354 137 443 117 c 8
 532 97 579 88 614 91 c 0
 649 94 686 125 732 147 c 25
EndSplineSet
Validated: 33
EndChar

StartChar: cacute
Encoding: 230 263 18
Width: 1000
Flags: H
LayerCount: 2
Fore
SplineSet
661 709 m 13
 503 592 l 25
 503 592 641 589 642 589 c 8
 643 589 773 707 772 707 c 0
 771 707 661 709 661 709 c 13
786 167 m 25
 786 167 765 133 740 105 c 8
 715 77 719 66 689 53 c 8
 659 40 675 39 631 36 c 8
 587 33 590 33 545 33 c 8
 500 33 498 26 453 36 c 8
 408 46 391 38 362 63 c 8
 333 88 326 87 307 127 c 8
 288 167 281 177 280 215 c 8
 279 253 268 261 280 316 c 8
 292 371 266 361 303 412 c 8
 340 463 243 454 382 498 c 8
 521 542 538 541 568 542 c 8
 598 543 622 546 639 546 c 8
 656 546 679 545 697 540 c 8
 715 535 728 535 741 526 c 8
 754 517 773 506 774 498 c 8
 775 490 769 450 769 450 c 25
 769 450 609 446 599 446 c 8
 589 446 572 445 537 442 c 8
 502 439 491 437 459 428 c 8
 427 419 416 421 397 400 c 8
 378 379 376 386 363 349 c 8
 350 312 351 320 349 290 c 8
 347 260 346 254 350 225 c 8
 354 196 347 193 364 168 c 8
 381 143 358 135 406 126 c 8
 454 117 424 104 502 116 c 8
 580 128 581 128 622 147 c 8
 663 166 676 171 697 183 c 8
 718 195 717 202 735 200 c 0
 753 198 766 180 786 167 c 25
EndSplineSet
Validated: 41
EndChar

StartChar: dcroat
Encoding: 240 273 19
Width: 1000
Flags: H
LayerCount: 2
Fore
SplineSet
788 35 m 13
 774 415 l 25
 823 415 l 25
 824 463 l 25
 824 463 780 461 779 461 c 8
 778 461 779 611 779 611 c 25
 685 606 l 25
 694 466 l 25
 663 465 l 25
 663 465 665 449 665 439 c 8
 665 429 663 414 662 414 c 8
 661 414 704 418 704 418 c 25
 706 294 l 25
 706 294 663 300 648 306 c 8
 633 312 604 326 579 332 c 8
 554 338 503 346 485 348 c 8
 467 350 445 352 429 346 c 8
 413 340 396 322 387 307 c 8
 378 292 358 274 354 246 c 8
 350 218 346 194 357 165 c 8
 368 136 379 108 389 92 c 8
 399 76 397 66 414 55 c 8
 431 44 436 38 470 34 c 8
 504 30 509 32 550 28 c 8
 591 24 605 24 629 24 c 8
 653 24 675 34 675 34 c 25
 676 93 l 25
 676 93 655 87 640 83 c 8
 625 79 623 79 593 79 c 8
 563 79 566 78 539 81 c 8
 512 84 501 80 477 90 c 8
 453 100 444 100 431 122 c 8
 418 144 412 144 410 177 c 8
 408 210 398 222 418 243 c 8
 438 264 445 280 473 282 c 8
 501 284 494 292 534 283 c 8
 574 274 576 271 615 266 c 8
 654 261 658 259 674 259 c 8
 690 259 706 259 706 259 c 25
 703 95 l 25
 684 96 l 25
 681 37 l 25
 788 35 l 13
EndSplineSet
Validated: 37
EndChar

StartChar: Dcroat
Encoding: 208 272 20
Width: 1000
Flags: H
LayerCount: 2
Fore
SplineSet
183 749 m 29
 189 374 l 25
 104 380 l 25
 99 238 l 25
 99 238 184 260 185 260 c 8
 186 260 187 52 187 52 c 25
 187 52 227 48 234 48 c 8
 241 48 265 46 296 48 c 8
 327 50 326 51 375 55 c 8
 424 59 408 60 457 60 c 8
 506 60 520 46 564 75 c 8
 608 104 614 107 647 139 c 8
 680 171 684 167 712 212 c 8
 740 257 752 266 763 321 c 8
 774 376 786 376 776 430 c 8
 766 484 777 491 750 533 c 8
 723 575 699 593 669 626 c 8
 639 659 644 671 600 688 c 8
 556 705 538 706 469 718 c 8
 400 730 345 740 308 747 c 8
 271 754 209 747 208 747 c 8
 207 747 212 687 212 687 c 25
 212 687 238 690 240 690 c 8
 242 690 260 692 288 690 c 8
 316 688 312 692 353 683 c 8
 394 674 380 678 417 671 c 8
 454 664 456 665 484 657 c 8
 512 649 515 648 544 641 c 8
 573 634 589 631 607 620 c 8
 625 609 628 614 642 590 c 8
 656 566 663 560 674 531 c 8
 685 502 702 462 704 450 c 8
 706 438 709 418 707 394 c 8
 705 370 705 361 696 331 c 8
 687 301 686 290 672 262 c 8
 658 234 664 239 645 219 c 8
 626 199 648 207 613 188 c 8
 578 169 597 174 547 156 c 8
 497 138 494 129 459 129 c 8
 424 129 407 128 354 131 c 8
 301 134 256 135 254 135 c 8
 252 135 254 271 254 271 c 25
 356 266 l 25
 363 373 l 25
 231 378 l 25
 231 378 244 397 244 402 c 8
 244 407 247 412 249 427 c 8
 251 442 250 452 252 469 c 8
 254 486 256 494 256 513 c 8
 256 532 255 530 254 551 c 8
 253 572 254 581 253 594 c 8
 252 607 254 611 251 622 c 8
 248 633 242 662 242 665 c 8
 242 668 234 684 234 684 c 25
 206 680 l 25
 200 748 l 25
 183 749 l 29
EndSplineSet
Validated: 41
EndChar

